<?xml version="1.0" encoding="utf-8"?>
<!-- Generator: Adobe Illustrator 18.1.0, SVG Export Plug-In . SVG Version: 6.00 Build 0)  -->
<!DOCTYPE svg PUBLIC "-//W3C//DTD SVG 1.1//EN" "http://www.w3.org/Graphics/SVG/1.1/DTD/svg11.dtd">
<svg version="1.1" id="Layer_1" xmlns="http://www.w3.org/2000/svg" xmlns:xlink="http://www.w3.org/1999/xlink" x="0px" y="0px"
	 viewBox="0 0 612 792" enable-background="new 0 0 612 792" xml:space="preserve">
<g>
	<path fill="#00ACA5" d="M376.9,556.2l-57-138.8c-1.4-3-3.8-7.1-7.1-11.8c-6-8.5-15.3-12.6-24.6-12.6c-9.6,0.3-18.9,4.7-24.6,13.4
		c-2.7,4.1-4.9,7.9-6.3,11l-48.5,118.6c-2.5,6-9,20.3-9,20.3l-90.6-260.4h54.2l0,0l0,0l46-108.4l52.8,129.2
		c4.7,11.5,14.8,18.9,26,18.9s21.4-7.1,26-18.9l8.5-20.8h144L376.9,556.2z M595.4,72.9c-0.5-0.5-1.1-1.4-2.5-1.4h-532
		c-1.1,0-2.2,0.8-2.7,2.2l-35.6,86.8c-0.8,1.9-0.3,3.6,0.3,4.7c0.5,0.5,1.1,1.4,2.5,1.4H197h2.5l-47.9,112.5H97.6H24
		c-5.8,0-9.9,6.6-7.4,12.6l169.8,423.6c2.7,7.1,11.8,7.1,14.8,0l80-195.2c2.7-6.6,12-6.6,14.8,0l80,195.2c2.7,7.1,12,7.1,14.8,0
		l169.5-423.6c2.5-6-1.6-12.6-7.4-12.6h-74.5H329.8l33.4-81.3c7.7-18.9,25.2-31.2,44.1-31.2h151.4c1.1,0,2.2-0.8,2.7-2.2l34.8-87.1
		C596.5,75.6,596.2,73.7,595.4,72.9"/>
</g>
</svg>
