<?xml version="1.0" encoding="utf-8"?>
<!-- Generator: Adobe Illustrator 18.1.0, SVG Export Plug-In . SVG Version: 6.00 Build 0)  -->
<!DOCTYPE svg PUBLIC "-//W3C//DTD SVG 1.1//EN" "http://www.w3.org/Graphics/SVG/1.1/DTD/svg11.dtd">
<svg version="1.1" id="Layer_1" xmlns="http://www.w3.org/2000/svg" xmlns:xlink="http://www.w3.org/1999/xlink" x="0px" y="0px"
	 viewBox="-72 273 612 184" enable-background="new -72 273 612 184" xml:space="preserve">
<g>
	<g>
		<path fill="#303131" d="M517.6,418.1c-0.2,0.2-0.6,0.2-1,0.4s-1,0.2-1.5,0.2s-0.8-0.2-1.2-0.4s-0.6-0.6-0.6-1.2v-9.5h3.7v-2.7
			h-3.7v-5.8h-3.6v5.6h-2.3v2.7h2.3V418c0,0.6,0.2,1.2,0.4,1.9c0.2,0.4,0.6,0.8,0.8,1.2c0.4,0.2,0.8,0.6,1.2,0.6
			c0.4,0.2,1,0.2,1.7,0.2c1,0,1.9-0.2,2.7-0.4s1.5-0.4,1.9-0.8L517.6,418.1z M504.9,411.4c0-1,0-1.9-0.2-2.7s-0.4-1.7-0.8-2.3
			c-0.4-0.6-0.8-1.2-1.7-1.5c-0.6-0.4-1.5-0.6-2.5-0.6c-1.5,0-2.9,0.4-4.1,1c-1.2,0.6-2.3,1.7-2.9,2.7v-3.5h-3.1v17h3.5v-10.2
			c0.2-0.6,0.4-1,0.8-1.7c0.4-0.4,0.8-0.8,1.2-1.2s1-0.6,1.5-0.8c0.6-0.2,1-0.2,1.7-0.2c1,0,1.7,0.4,2.3,1c0.6,0.8,0.8,1.9,0.8,3.5
			v9.5h3.5V411.4L504.9,411.4z M472.8,411.9c0-0.6,0.2-1.5,0.6-2.1c0.2-0.6,0.6-1,1-1.5c0.4-0.4,1-0.8,1.7-1
			c0.6-0.2,1.2-0.4,1.9-0.4s1.2,0.2,1.9,0.4c0.6,0.2,1,0.6,1.7,1c0.4,0.4,0.8,1,1,1.5c0.2,0.6,0.4,1.2,0.6,2.1H472.8z M482.7,420.8
			c1.5-0.8,2.3-1.9,2.9-3.1l-3.1-0.8c-0.2,0.4-0.4,0.8-0.6,1c-0.2,0.4-0.6,0.6-1,0.8s-0.8,0.4-1.2,0.6s-1,0.2-1.5,0.2
			c-0.6,0-1.2-0.2-1.9-0.4c-0.6-0.2-1-0.6-1.7-1c-0.6-0.4-0.8-1-1-1.7c-0.2-0.6-0.4-1.2-0.6-2.1h13.7c0-0.2,0-0.4,0-0.6
			c0-0.2,0-0.4,0-0.8c0-1.2-0.2-2.3-0.6-3.3c-0.4-1-1-2.1-1.7-2.7c-0.8-0.8-1.7-1.5-2.7-1.9s-2.3-0.6-3.5-0.6s-2.5,0.2-3.7,0.6
			c-1,0.4-2.1,1-2.7,1.9c-0.6,0.8-1.5,1.7-1.9,2.9c-0.4,1-0.6,2.3-0.6,3.3s0.2,2.3,0.6,3.3s1,2.1,1.9,2.9c0.8,0.8,1.7,1.5,2.7,1.9
			s2.3,0.6,3.5,0.6C479.8,422,481.3,421.6,482.7,420.8 M466.2,411.4c0-1,0-1.9-0.2-2.7s-0.4-1.7-0.8-2.3c-0.4-0.6-0.8-1-1.7-1.5
			c-0.6-0.4-1.5-0.6-2.5-0.6c-1.5,0-2.7,0.4-3.7,1s-2.1,1.7-2.7,2.9c-0.2-1-0.8-2.1-1.5-2.7c-0.8-0.8-1.9-1-3.3-1
			c-1.5,0-2.7,0.4-3.7,1s-2.1,1.7-2.7,2.7v-3.5h-3.3v17h3.5v-10.2c0.4-1.2,1-2.1,1.9-2.9c0.8-0.8,1.9-1,2.7-1c1,0,1.7,0.4,2.3,1
			c0.4,0.8,0.8,1.9,0.8,3.5v9.5h3.5v-10.2c0.4-1.2,1-2.1,1.9-2.9c0.8-0.8,1.9-1,2.7-1c1,0,1.7,0.4,2.3,1c0.6,0.8,0.8,1.9,0.8,3.5
			v9.5h3.5v-10.4h0.2V411.4z M426.8,418.7c-0.4-0.2-1-0.4-1.5-0.8c-0.4-0.4-0.8-0.6-1.2-1.2c-0.4-0.6-0.6-1-0.8-1.5v-4.6
			c0.2-0.4,0.4-0.8,0.6-1.2c0.4-0.4,0.6-0.8,1.2-1c0.4-0.2,0.8-0.6,1.5-0.6c0.4-0.2,1-0.2,1.5-0.2c0.8,0,1.5,0.2,2.1,0.4
			s1.2,0.6,1.7,1.2c0.4,0.6,0.8,1,1,1.9c0.2,0.6,0.4,1.5,0.4,2.3s-0.2,1.5-0.4,2.1c-0.2,0.6-0.6,1.2-1,1.9c-0.4,0.6-1,1-1.7,1.2
			c-0.6,0.4-1.2,0.4-2.1,0.4C427.8,418.9,427.2,418.9,426.8,418.7 M432.4,421.4c0.8-0.4,1.7-1,2.5-1.9c0.6-0.8,1.2-1.7,1.7-2.9
			c0.4-1,0.6-2.3,0.6-3.5s-0.2-2.3-0.6-3.3s-1-2.1-1.7-2.9c-0.6-0.8-1.7-1.5-2.5-1.9s-2.1-0.6-3.1-0.6c-1.2,0-2.5,0.2-3.5,0.8
			s-1.9,1.5-2.5,2.5v-3.1h-3.1v24.1h3.5v-10.2c0.6,1,1.5,1.9,2.5,2.5s2.3,1,3.5,1C430.5,422,431.5,421.8,432.4,421.4 M403.1,411
			c0.2-0.6,0.6-1.2,1-1.9c0.4-0.6,1-1,1.7-1.2c0.6-0.2,1.2-0.4,1.9-0.4c0.6,0,1.5,0.2,2.1,0.4s1.2,0.6,1.7,1.2c0.4,0.6,0.8,1,1,1.9
			c0.2,0.6,0.4,1.5,0.4,2.3s-0.2,1.7-0.4,2.3c-0.2,0.6-0.6,1.2-1,1.9c-0.4,0.6-1,0.8-1.7,1.2c-0.6,0.2-1.2,0.4-2.1,0.4
			c-0.6,0-1.5-0.2-2.1-0.4s-1.2-0.6-1.7-1.2c-0.4-0.4-0.8-1-1-1.9c-0.2-0.6-0.4-1.5-0.4-2.3C402.7,412.5,402.9,411.7,403.1,411
			 M411.4,421.4c1-0.4,2.1-1,2.7-1.9c0.8-0.8,1.5-1.7,1.9-2.9c0.4-1,0.6-2.3,0.6-3.3c0-1.2-0.2-2.3-0.6-3.3s-1-2.1-1.9-2.9
			c-0.8-0.8-1.7-1.5-2.7-1.9s-2.3-0.6-3.5-0.6s-2.5,0.2-3.5,0.6s-2.1,1-2.7,1.9c-0.8,0.8-1.5,1.7-1.9,2.9c-0.4,1-0.6,2.3-0.6,3.3
			c0,1.2,0.2,2.3,0.6,3.3s1,2.1,1.7,2.9c0.8,0.8,1.7,1.5,2.7,1.9s2.3,0.6,3.7,0.6C409.1,422,410.4,421.8,411.4,421.4 M390.5,418.1
			c0,1.2,0.4,2.3,1,2.9c0.6,0.6,1.7,1,2.9,1c0.6,0,1.2,0,1.9-0.2c0.6-0.2,1.2-0.4,1.9-0.6l-0.6-2.9c-0.2,0.2-0.6,0.2-0.8,0.2
			c-0.4,0-0.6,0.2-0.8,0.2c-0.6,0-1-0.2-1.5-0.6c-0.4-0.4-0.4-0.8-0.4-1.5v-18.7h-3.5L390.5,418.1L390.5,418.1z M373.9,411.9
			c0-0.6,0.2-1.5,0.6-2.1c0.2-0.6,0.6-1,1-1.5c0.4-0.4,1-0.8,1.7-1c0.6-0.2,1.2-0.4,1.9-0.4c0.6,0,1.2,0.2,1.9,0.4
			c0.6,0.2,1,0.6,1.7,1c0.4,0.4,0.8,1,1,1.5c0.2,0.6,0.4,1.2,0.6,2.1H373.9z M383.6,420.8c1.5-0.8,2.3-1.9,2.9-3.1l-3.1-0.8
			c-0.2,0.4-0.4,0.8-0.6,1c-0.2,0.4-0.6,0.6-1,0.8s-0.8,0.4-1.2,0.6c-0.4,0.2-1,0.2-1.5,0.2c-0.6,0-1.2-0.2-1.9-0.4
			c-0.6-0.2-1-0.6-1.7-1c-0.4-0.4-0.8-1-1-1.7c-0.2-0.6-0.4-1.2-0.6-2.1h13.7c0-0.2,0-0.4,0-0.6c0-0.2,0-0.4,0-0.8
			c0-1.2-0.2-2.3-0.6-3.3s-1-2.1-1.7-2.7c-0.8-0.8-1.7-1.5-2.7-1.9s-2.3-0.6-3.5-0.6s-2.5,0.2-3.7,0.6c-1,0.4-2.1,1-2.7,1.9
			c-0.8,0.8-1.5,1.7-1.9,2.9c-0.4,1-0.6,2.3-0.6,3.3s0.2,2.3,0.6,3.3s1,2.1,1.9,2.9c0.8,0.8,1.7,1.5,2.7,1.9s2.3,0.6,3.5,0.6
			C380.7,422,382.4,421.6,383.6,420.8 M362.3,421.8l6.4-17h-3.3l-5,14.1l-4.8-14.1h-3.7l6.4,17H362.3z M337.4,411.9
			c0-0.6,0.2-1.5,0.6-2.1c0.2-0.6,0.6-1,1-1.5c0.4-0.4,1-0.8,1.7-1c0.6-0.2,1.2-0.4,1.9-0.4c0.6,0,1.2,0.2,1.9,0.4
			c0.6,0.2,1,0.6,1.7,1c0.4,0.4,0.8,1,1,1.5c0.2,0.6,0.4,1.2,0.6,2.1H337.4z M347.1,420.8c1.5-0.8,2.3-1.9,2.9-3.1l-3.1-0.8
			c-0.2,0.4-0.4,0.8-0.6,1c-0.2,0.4-0.6,0.6-1,0.8s-0.8,0.4-1.2,0.6c-0.4,0.2-1,0.2-1.5,0.2c-0.6,0-1.2-0.2-1.9-0.4
			c-0.6-0.2-1-0.6-1.7-1c-0.4-0.4-0.8-1-1.2-1.7c-0.2-0.6-0.4-1.2-0.6-2.1h13.7c0-0.2,0-0.4,0-0.6c0-0.2,0-0.4,0-0.8
			c0-1.2-0.2-2.3-0.6-3.3s-1-2.1-1.7-2.7c-0.8-0.8-1.7-1.5-2.7-1.9s-2.3-0.6-3.5-0.6s-2.5,0.2-3.7,0.6c-1,0.4-2.1,1-2.7,1.9
			c-0.8,0.8-1.5,1.7-1.9,2.9c-0.4,1-0.6,2.3-0.6,3.3s0.2,2.3,0.6,3.3s1,2.1,1.9,2.9c0.8,0.8,1.7,1.5,2.7,1.9s2.3,0.6,3.5,0.6
			C344.2,422,345.9,421.6,347.1,420.8 M319.7,418.5c-0.6-0.2-1.2-0.6-1.7-1.2c-0.4-0.4-0.8-1-1-1.9c-0.2-0.6-0.4-1.5-0.4-2.3
			s0.2-1.5,0.4-2.1c0.2-0.6,0.6-1.2,1-1.9c0.4-0.6,1-1,1.7-1.2c0.6-0.4,1.2-0.4,2.1-0.4c0.4,0,1,0,1.5,0.2c0.4,0.2,1,0.4,1.5,0.8
			c0.4,0.4,0.8,0.8,1.2,1.2c0.4,0.4,0.6,0.8,0.8,1.5v4.6c-0.2,0.4-0.4,0.8-0.6,1.2c-0.4,0.4-0.6,0.8-1,1s-0.8,0.6-1.5,0.6
			c-0.4,0.2-1,0.2-1.5,0.2C321,418.9,320.4,418.9,319.7,418.5 M324.3,421.2c1-0.6,1.9-1.5,2.7-2.5v1.5c0.2,1,0.8,1.7,2.3,1.9
			c0.2,0,0.4,0,0.8,0c0.2,0,0.6,0,1-0.2v-3.1c-0.6,0-1-0.4-1-1.2v-19.5h-3.5v10c-0.6-1-1.5-1.9-2.5-2.5s-2.3-1-3.5-1
			c-1,0-2.1,0.2-3.1,0.6s-1.7,1-2.5,1.9c-0.6,0.8-1.2,1.7-1.7,2.7s-0.6,2.3-0.6,3.5s0.2,2.3,0.6,3.5c0.4,1,1,2.1,1.7,2.9
			c0.6,0.8,1.7,1.5,2.5,1.9c1,0.4,2.1,0.6,3.3,0.6C322,422,323.3,421.8,324.3,421.2 M288,401.7c0.6-0.4,1.2-0.8,2.1-0.8
			c0.8,0,1.5,0.2,1.9,0.6s0.8,1,0.8,1.7c0,0.6-0.2,1.2-0.8,1.9c-0.6,0.6-1.5,1.2-2.3,1.9c-0.4-0.4-0.8-0.8-1-1.2s-0.6-0.6-0.6-0.8
			c-0.2-0.2-0.2-0.4-0.4-0.6c0-0.2,0-0.4,0-0.6C287.2,402.9,287.4,402.3,288,401.7 M288.6,418.9c-0.6-0.2-1-0.4-1.5-0.8
			c-0.4-0.4-0.8-0.6-1-1.2c-0.2-0.4-0.4-1-0.4-1.5c0-0.8,0.2-1.7,0.8-2.3c0.6-0.6,1.2-1.5,2.1-2.1l6,6.4c-0.6,0.6-1.2,1-2.1,1.2
			s-1.5,0.4-2.3,0.4C289.7,419.3,289,419.1,288.6,418.9 M303.6,421.8L299,417c0.6-1,1-2.1,1.5-3.3s0.6-2.7,0.6-4.1h-2.9
			c0,1,0,1.9-0.2,2.9c-0.2,0.8-0.4,1.7-0.8,2.5l-5.2-5.4c1.2-0.8,2.3-1.7,3.1-2.7s1.2-2.1,1.2-3.3c0-0.8-0.2-1.5-0.4-2.1
			c-0.4-0.6-0.8-1-1.2-1.5c-0.6-0.4-1.2-0.8-1.9-1c-0.6-0.2-1.5-0.4-2.3-0.4s-1.7,0.2-2.5,0.4s-1.5,0.6-1.9,1s-1,1-1.2,1.7
			c-0.4,0.6-0.4,1.5-0.4,2.1c0,0.4,0,0.8,0.2,1.2c0,0.4,0.2,0.8,0.4,1.2c0.2,0.4,0.4,0.8,0.8,1.2s0.8,1,1.2,1.5
			c-0.6,0.4-1,0.8-1.7,1.2c-0.4,0.4-1,1-1.5,1.5c-0.4,0.6-0.6,1-1,1.7c-0.2,0.6-0.4,1.2-0.4,2.1s0.2,1.9,0.6,2.7s0.8,1.5,1.7,2.1
			c0.6,0.6,1.5,1,2.5,1.5c1,0.4,1.9,0.6,3.1,0.6s2.5-0.2,3.5-0.6c1-0.4,2.3-1,3.1-1.9l2.1,2.3h4.4L303.6,421.8L303.6,421.8z
			 M271,411.4c0-1,0-1.9-0.2-2.7s-0.4-1.7-0.8-2.3s-0.8-1.2-1.7-1.5c-0.6-0.4-1.5-0.6-2.5-0.6c-1.5,0-2.9,0.4-4.1,1
			s-2.3,1.7-2.9,2.7v-3.5h-3.3v17h3.5v-10.2c0.2-0.6,0.4-1,0.8-1.7c0.4-0.4,0.8-0.8,1.2-1.2c0.4-0.4,1-0.6,1.5-0.8
			c0.6-0.2,1-0.2,1.7-0.2c1,0,1.7,0.4,2.3,1c0.6,0.8,0.8,1.9,0.8,3.5v9.5h3.5v-10.2h0.2V411.4z M241.1,418.5
			c-0.6-0.2-1.2-0.6-1.7-1.2c-0.4-0.4-0.8-1-1-1.9c-0.2-0.6-0.4-1.5-0.4-2.3s0.2-1.5,0.4-2.1c0.2-0.6,0.6-1.2,1-1.9
			c0.4-0.6,1-1,1.7-1.2c0.6-0.4,1.2-0.4,2.1-0.4c1,0,2.1,0.4,2.9,1s1.7,1.7,2.1,2.7v4.6c-0.2,0.4-0.4,0.8-0.6,1.2s-0.6,0.8-1,1
			c-0.4,0.4-0.8,0.6-1.5,0.8c-0.4,0.2-1,0.2-1.7,0.2C242.4,418.9,241.8,418.9,241.1,418.5 M245.3,421c1-0.6,1.9-1.5,2.5-2.5v2.7
			c0,0.8-0.2,1.7-0.4,2.3c-0.2,0.6-0.6,1.2-1.2,1.7c-0.4,0.4-1,0.6-1.7,0.8c-0.6,0.2-1.5,0.2-2.1,0.2c-1.2,0-2.3-0.2-3.3-0.6
			s-1.9-1.2-2.5-2.1l-2.1,1.9c0.8,1.2,1.9,2.1,3.1,2.7s2.9,1,4.8,1c1.2,0,2.5-0.2,3.5-0.6c1-0.4,2.1-0.8,2.9-1.5
			c0.8-0.6,1.5-1.5,1.9-2.5s0.6-2.1,0.6-3.3v-16.6h-3.1v3.3c-0.6-1-1.5-1.9-2.5-2.5s-2.3-1-3.5-1s-2.3,0.2-3.1,0.6
			c-1,0.4-1.9,1-2.5,1.9c-0.6,0.8-1.2,1.7-1.7,2.7c-0.4,1-0.6,2.3-0.6,3.5s0.2,2.3,0.6,3.3s0.8,1.9,1.7,2.7c0.6,0.8,1.5,1.5,2.5,1.9
			s2.1,0.6,3.1,0.6C243.2,421.8,244.2,421.6,245.3,421 M231,398h-3.5v3.9h3.5V398z M231,404.8h-3.5v17h3.5V404.8z M220.4,421.6
			c0.8-0.2,1.7-0.6,2.3-1c0.6-0.4,1-1,1.5-1.7c0.4-0.6,0.4-1.5,0.4-2.3c0-0.6-0.2-1.2-0.4-1.9c-0.2-0.4-0.6-1-1.2-1.2
			c-0.6-0.4-1.2-0.6-2.1-1c-0.8-0.2-1.9-0.6-3.1-0.8c-0.6-0.2-1.2-0.4-1.7-0.4c-0.4-0.2-0.8-0.2-1.2-0.4c-0.2-0.2-0.4-0.4-0.6-0.6
			s-0.2-0.6-0.2-0.8c0-0.8,0.4-1.5,1-1.9s1.5-0.6,2.3-0.6c1.9,0,3.5,0.6,5.2,1.9l1.5-2.3c-0.8-0.6-1.9-1.2-3.1-1.7s-2.3-0.6-3.5-0.6
			c-0.8,0-1.9,0.2-2.7,0.4c-0.8,0.2-1.5,0.6-2.1,1s-1,1-1.5,1.7c-0.4,0.6-0.6,1.5-0.6,2.3c0,0.6,0.2,1.2,0.4,1.7s0.6,0.8,1,1.2
			s1,0.6,1.9,0.8s1.7,0.6,2.7,0.8c1.5,0.4,2.7,0.6,3.3,1c0.6,0.4,1,0.8,1,1.7s-0.4,1.2-1,1.7c-0.6,0.4-1.5,0.6-2.5,0.6
			c-2.1,0-4.1-0.8-6.2-2.3l-1.5,2.5c0.4,0.4,1,0.6,1.7,1c0.6,0.2,1.2,0.6,1.9,0.8s1.5,0.4,2.1,0.4c0.6,0.2,1.5,0.2,2.1,0.2
			C218.5,422,219.6,422,220.4,421.6 M194.5,411.9c0-0.6,0.2-1.5,0.6-2.1c0.2-0.6,0.6-1,1-1.5c0.4-0.4,1-0.8,1.7-1
			c0.6-0.2,1.2-0.4,1.9-0.4c0.6,0,1.2,0.2,1.9,0.4c0.6,0.2,1,0.6,1.7,1c0.4,0.4,0.8,1,1,1.5c0.2,0.6,0.4,1.2,0.6,2.1H194.5z
			 M204.2,420.8c1.5-0.8,2.3-1.9,2.9-3.1l-3.1-0.8c-0.2,0.4-0.4,0.8-0.6,1c-0.2,0.4-0.6,0.6-1,0.8s-0.8,0.4-1.2,0.6
			c-0.4,0.2-1,0.2-1.5,0.2c-0.6,0-1.2-0.2-1.9-0.4c-0.6-0.2-1-0.6-1.7-1s-0.8-1-1-1.7c-0.2-0.6-0.4-1.2-0.6-2.1h13.7
			c0-0.2,0-0.4,0-0.6c0-0.2,0-0.4,0-0.8c0-1.2-0.2-2.3-0.6-3.3s-1-2.1-1.7-2.7c-0.8-0.8-1.7-1.5-2.7-1.9s-2.3-0.6-3.5-0.6
			s-2.5,0.2-3.7,0.6c-1,0.4-2.1,1-2.7,1.9c-0.8,0.8-1.5,1.7-1.9,2.9c-0.4,1-0.6,2.3-0.6,3.3s0.2,2.3,0.6,3.3s1,2.1,1.9,2.9
			c0.8,0.8,1.7,1.5,2.7,1.9s2.3,0.6,3.5,0.6C201.3,422,203,421.6,204.2,420.8 M176.8,418.5c-0.6-0.2-1.2-0.6-1.7-1.2
			c-0.4-0.4-0.8-1-1-1.9c-0.2-0.6-0.4-1.5-0.4-2.3s0.2-1.5,0.4-2.1s0.6-1.2,1-1.9c0.4-0.6,1-1,1.7-1.2c0.6-0.4,1.2-0.4,2.1-0.4
			c0.4,0,1,0,1.5,0.2c0.4,0.2,1,0.4,1.5,0.8c0.4,0.4,0.8,0.8,1.2,1.2s0.6,0.8,0.8,1.5v4.6c-0.2,0.4-0.4,0.8-0.6,1.2
			c-0.4,0.4-0.6,0.8-1,1s-0.8,0.6-1.5,0.6c-0.4,0.2-1,0.2-1.5,0.2C178.1,418.9,177.5,418.9,176.8,418.5 M181.4,421.2
			c1-0.6,1.9-1.5,2.7-2.5v1.5c0.2,1,1,1.7,2.3,1.9c0.2,0,0.4,0,0.8,0c0.2,0,0.6,0,1-0.2v-3.1c-0.6,0-1-0.4-1-1.2v-19.5h-3.5v10
			c-0.6-1-1.5-1.9-2.5-2.5s-2.3-1-3.5-1c-1,0-2.1,0.2-3.1,0.6s-1.7,1-2.5,1.9c-0.6,0.8-1.2,1.7-1.7,2.7s-0.6,2.3-0.6,3.5
			s0.2,2.3,0.6,3.5c0.4,1,1,2.1,1.7,2.9s1.7,1.5,2.5,1.9c1,0.4,2.1,0.6,3.3,0.6C179.3,422,180.4,421.8,181.4,421.2 M157.4,418.7
			c-0.4-0.2-1-0.4-1.5-0.6s-0.8-0.6-1.2-1s-0.6-0.8-0.6-1.5V411c0.2-0.4,0.6-1,0.8-1.5c0.4-0.4,0.6-0.8,1-1.2s0.8-0.6,1.5-0.8
			c0.4-0.2,1-0.2,1.7-0.2c0.8,0,1.5,0.2,2.1,0.4c0.6,0.4,1.2,0.8,1.7,1.2c0.4,0.6,0.8,1.2,1,1.9c0.2,0.6,0.4,1.5,0.4,2.3
			s-0.2,1.5-0.4,2.1s-0.6,1.2-1,1.9c-0.4,0.6-1,1-1.7,1.2c-0.6,0.4-1.5,0.4-2.1,0.4C158.4,418.9,157.8,418.9,157.4,418.7 M163,421.4
			c1-0.4,1.9-1,2.5-1.9c0.6-0.8,1.2-1.7,1.7-2.7s0.6-2.3,0.6-3.5s-0.2-2.3-0.6-3.3s-0.8-2.1-1.5-2.9s-1.5-1.5-2.5-1.9
			s-1.9-0.8-3.1-0.8c-1.5,0-2.5,0.4-3.5,1s-1.9,1.5-2.5,2.5v-10h-3.5v23.8h3.1v-3.1c0.6,1,1.5,1.9,2.5,2.5s2.3,0.8,3.5,0.8
			S161.9,421.8,163,421.4 M133.7,411.9c0-0.6,0.2-1.5,0.6-2.1c0.2-0.6,0.6-1,1-1.5c0.4-0.4,1-0.8,1.7-1c0.6-0.2,1.2-0.4,1.9-0.4
			c0.6,0,1.2,0.2,1.9,0.4c0.6,0.2,1.2,0.6,1.7,1c0.4,0.4,0.8,1,1,1.5c0.2,0.6,0.4,1.2,0.6,2.1H133.7z M143.7,420.8
			c1.5-0.8,2.3-1.9,2.9-3.1l-3.1-0.8c-0.2,0.4-0.4,0.8-0.6,1c-0.2,0.4-0.6,0.6-1,0.8s-0.8,0.4-1.2,0.6s-1,0.2-1.5,0.2
			c-0.6,0-1.2-0.2-1.9-0.4c-0.6-0.2-1-0.6-1.7-1s-0.8-1-1-1.7c-0.2-0.6-0.4-1.2-0.6-2.1h13.7c0-0.2,0-0.4,0-0.6c0-0.2,0-0.4,0-0.8
			c0-1.2-0.2-2.3-0.6-3.3c-0.4-1-1-2.1-1.7-2.7c-0.8-0.8-1.7-1.5-2.7-1.9s-2.3-0.6-3.5-0.6s-2.5,0.2-3.7,0.6c-1,0.4-2.1,1-2.7,1.9
			c-0.8,0.8-1.5,1.7-1.9,2.9c-0.4,1-0.6,2.3-0.6,3.3s0.2,2.3,0.6,3.3s1,2.1,1.9,2.9c0.8,0.8,1.7,1.5,2.7,1.9s2.3,0.6,3.5,0.6
			C140.8,422,142.2,421.6,143.7,420.8 M119.8,418.3l-2.5-6.2l2.9-7.3h-2.9l-1.9,5.4l-1.9-5.4h-2.8l2.9,7.3l-2.5,6.2l-5.6-13.7h-3.3
			l7.3,17h2.9l3.1-7.9l3.1,7.9h2.9l7.3-17h-3.5L119.8,418.3z"/>
	</g>
	<polygon fill="#00ACA5" points="87,333.5 87,344 103,344 103,385.3 115,385.3 115,344 130.8,344 130.8,333.5 	"/>
	<polygon fill="#00ACA5" points="181.6,333.5 181.6,385.3 169.6,385.3 169.6,364.2 148.8,364.2 148.8,385.3 136.8,385.3 
		136.8,333.5 148.8,333.5 148.8,353.6 169.6,353.6 169.6,333.5 	"/>
	<path fill="#00ACA5" d="M211.3,346.1l-6.2,19.3h12.2L211.3,346.1z M186.4,385.3l20.1-51.8h9.7l19.9,51.8h-12.9l-3.9-11.6h-16.2
		l-3.9,11.6H186.4z"/>
	<polygon fill="#00ACA5" points="276,344 260,344 260,385.3 248,385.3 248,344 232.2,344 232.2,333.5 276,333.5 	"/>
	<g>
		<path fill="#00ACA5" d="M279.9,332c1.2,0,2.7,0.2,4.1,0.4c1.5,0.2,2.7,0.6,3.9,1.5c1.2,0.6,2.3,1.5,2.9,2.7c0.8,1,1.2,2.5,1.2,4.1
			v10h-9.5V343c0-0.6-0.2-1-0.4-1.5c-0.2-0.4-0.4-0.6-0.8-0.8c-0.2-0.2-0.6-0.4-0.8-0.4c-0.2,0-0.4,0-0.6,0L279.9,332L279.9,332z"/>
		<path fill="#00ACA5" d="M332.4,348.6c-0.2-0.2-0.8-0.6-1.7-1c-0.8-0.6-2.1-1-3.3-1.7c-1.2-0.6-2.7-1-4.4-1.5
			c-1.7-0.4-3.1-0.6-4.8-0.6c-2.1,0-3.5,0.4-4.8,1c-1,0.8-1.7,1.9-1.7,3.1c0,0.8,0.2,1.7,0.8,2.3c0.4,0.6,1.2,1,2.1,1.7
			c0.8,0.6,2.1,0.8,3.3,1.2c1.2,0.4,2.9,0.8,4.6,1.2c2.5,0.6,4.8,1.5,6.8,2.3s3.7,1.9,5.2,2.9c1.5,1.2,2.5,2.7,3.3,4.4s1,3.7,1,6.2
			c0,2.9-0.6,5.4-1.7,7.5s-2.5,3.7-4.4,5c-1.9,1.2-3.9,2.1-6.2,2.7c-2.3,0.6-4.8,0.8-7.3,0.8c-1.9,0-3.9-0.2-5.8-0.4
			c-2.1-0.2-3.9-0.6-5.8-1.2c-1.9-0.6-3.7-1.2-5.6-2.1c-1.9-0.8-3.5-1.7-5-2.7l5.2-10.4c0.2,0.2,0.8,0.6,2.1,1.5
			c1,0.6,2.5,1.5,3.9,2.1c1.7,0.6,3.3,1.2,5.2,1.9c1.9,0.6,3.9,0.8,6,0.8c4.4,0,6.4-1.2,6.4-3.9c0-1-0.4-1.9-1-2.5s-1.5-1.2-2.7-1.7
			c-1-0.4-2.5-1-3.9-1.5c-1.5-0.4-3.1-0.8-5-1.5c-2.5-0.8-4.6-1.5-6.2-2.3c-1.7-0.8-3.3-1.9-4.4-2.9c-1.2-1-2.1-2.5-2.7-3.9
			c-0.6-1.5-0.8-3.1-0.8-5.2c0-2.7,0.4-5.2,1.5-7.3c1-2.1,2.5-3.9,4.1-5.4c1.7-1.5,3.7-2.5,6.2-3.3c2.3-0.8,4.8-1,7.5-1
			c1.9,0,3.7,0.2,5.4,0.4c1.7,0.4,3.5,0.8,5,1.2c1.7,0.6,3.1,1.2,4.6,1.9c1.5,0.6,2.7,1.5,3.7,2.1L332.4,348.6z"/>
	</g>
	<polygon fill="#00ACA5" points="378.2,333.5 389.4,333.5 394.6,350.1 400,333.5 411,333.5 402.3,357.7 407.5,371.6 420.7,333.5 
		433.8,333.5 413.1,385.3 402.9,385.3 394.6,365 386.3,385.3 376.4,385.3 355.6,333.5 368.5,333.5 381.7,371.6 386.9,357.7 	"/>
	<polygon fill="#00ACA5" points="483.2,333.5 483.2,385.3 471.1,385.3 471.1,364.2 450.4,364.2 450.4,385.3 438.4,385.3 
		438.4,333.5 450.4,333.5 450.4,353.6 471.1,353.6 471.1,333.5 	"/>
	<polygon fill="#00ACA5" points="523.2,333.5 511.8,357.3 500.6,333.5 487.5,333.5 505.8,367.5 505.8,385.3 517.8,385.3 
		517.8,367.7 536.3,333.5 	"/>
</g>
<g>
	<path fill="#00ACA5" d="M27.5,405l-14.7-36.1c-0.4-0.8-1-1.9-1.9-3.1c-1.7-2.3-3.9-3.3-6.4-3.3l0,0c-2.5,0-5,1.2-6.4,3.5
		c-0.6,1-1.2,2.1-1.7,2.9l-12.7,30.9c-0.6,1.7-2.3,5.2-2.3,5.2l-23.6-67.8h14.1l0,0l0,0l12-28.2l13.8,33.6c1.2,3.1,3.9,5,6.8,5
		s5.6-1.9,6.8-5l2.3-5.4h37.5L27.5,405z M84.6,279.1c-0.2-0.2-0.2-0.4-0.6-0.4H-54.8c-0.2,0-0.6,0.2-0.6,0.6l-9.3,22.6
		c-0.2,0.4,0,0.8,0.2,1.2c0.2,0.2,0.4,0.4,0.6,0.4h44.8h0.6l-12.4,29.2h-14h-19.2c-1.5,0-2.5,1.7-1.9,3.3l44.2,110.3
		c0.8,1.9,3.1,1.9,3.9,0l20.7-50.8c0.6-1.7,3.1-1.7,3.7,0l20.7,50.8c0.8,1.9,3.1,1.9,3.9,0L75.3,336c0.6-1.5-0.4-3.3-1.9-3.3H53.9
		H15.3l8.7-21.2c2.1-5,6.6-8.1,11.4-8.1h39.4c0.2,0,0.6-0.2,0.6-0.6l9.1-22.6C84.8,279.8,84.8,279.3,84.6,279.1"/>
</g>
</svg>
