<?xml version="1.0" encoding="utf-8"?>
<!-- Generator: Adobe Illustrator 18.0.0, SVG Export Plug-In . SVG Version: 6.00 Build 0)  -->
<!DOCTYPE svg PUBLIC "-//W3C//DTD SVG 1.1//EN" "http://www.w3.org/Graphics/SVG/1.1/DTD/svg11.dtd">
<svg version="1.1" id="Capa_1" xmlns="http://www.w3.org/2000/svg" xmlns:xlink="http://www.w3.org/1999/xlink" x="0px" y="0px"
	 viewBox="0 0 11 20.6" enable-background="new 0 0 11 20.6" xml:space="preserve">
<path fill="#FFFFFF" d="M10.8,9.8L1.2,0.2C1,0.1,0.9,0,0.7,0C0.5,0,0.3,0.1,0.2,0.2l0,0C0.1,0.3,0,0.5,0,0.7v4.7
	c0,0.2,0.1,0.3,0.2,0.5l4.5,4.5l-4.5,4.5C0.1,14.9,0,15.1,0,15.3V20c0,0.2,0.1,0.4,0.2,0.5l0,0c0.1,0.1,0.3,0.2,0.5,0.2
	s0.3-0.1,0.5-0.2l9.6-9.6C11.1,10.5,11.1,10.1,10.8,9.8z"/>
</svg>
